<svg xmlns="http://www.w3.org/2000/svg" xmlns:xlink="http://www.w3.org/1999/xlink" width="30" height="28" viewBox="0 0 30 28"><defs><path id="sy3ra" d="M58.06 31.3c1.14 0 2.06 1.2 2.06 2.69v3.04c0 1.48-.92 2.67-2.06 2.67-1.14 0-2.06-1.2-2.06-2.67v-3.04c0-1.48.92-2.68 2.06-2.68zm25.88 0C85.08 31.3 86 32.5 86 34v3.04c0 1.48-.92 2.67-2.06 2.67-1.14 0-2.06-1.2-2.06-2.67v-3.04c0-1.48.92-2.68 2.06-2.68zm-19.41-4.27c1.14 0 2.06 1.2 2.06 2.68v11.58c0 1.48-.92 2.68-2.06 2.68-1.14 0-2.06-1.2-2.06-2.68V29.71c0-1.48.92-2.68 2.06-2.68zm12.94 0c1.14 0 2.06 1.2 2.06 2.68v11.58c0 1.48-.92 2.68-2.06 2.68-1.14 0-2.06-1.2-2.06-2.68V29.71c0-1.48.92-2.68 2.06-2.68zM68.94 23c0-1.1.9-2 2-2h.13a2 2 0 0 1 2 2v24a2 2 0 0 1-2 2h-.13a2 2 0 0 1-2-2z"/><linearGradient id="sy3rb" x1="70" x2="72" y1="49" y2="21" gradientUnits="userSpaceOnUse"><stop offset="0" stop-color="#0f33ff"/><stop offset=".76" stop-color="#07d2b3"/><stop offset="1" stop-color="#07d2b3"/></linearGradient></defs><g><g transform="translate(-56 -21)"><use fill="#391557" xlink:href="#sy3ra"/><use fill="url(#sy3rb)" xlink:href="#sy3ra"/></g></g></svg>